PathFileType	4	(x/y/z)	S04_PSF_T12.trc
DataRate	CameraRate	NumFrames	NumMarkers	Units	OrigDataRate	OrigDataStartFrame	OrigNumFrames
240	240	5	51	mm	240	54	426
Frame#	Time	Sternum			R.Acromium			L.Acromium			Top.Head			R.ASIS			L.ASIS			R.PSIS			L.PSIS			R.Great.Tro			L.Great.Tro			R.Iliac.Crest			L.Iliac.Crest			V.Sacral			R.Thigh.Upper.Post			R.Thigh.Lower.Ant			R.Thigh.Lower.Post			R.Thigh.Upper.Ant			R.Knee.Lat			R.Knee.Med			R.Shank.Upper.Post			R.Shank.Lower.Ant			R.Shank.Lower.Post			R.Shank.Upper.Ant			R.Ankle.Lat			R.Ankle.Med			R.Heel.Upper			R.Heel.Med			R.Heel.Lat			R.Toe.Lat			R.Toe.Med			R.Toe.Tip			L.Thigh.Upper.Post			L.Thigh.Lower.Ant			L.Thigh.Lower.Post			L.Thigh.Upper.Ant			L.Knee.Lat			L.Knee.Med			L.Shank.Upper.Post			L.Shank.Lower.Ant			L.Shank.Lower.Post			L.Shank.Upper.Ant			L.Ankle.Lat			L.Ankle.Med			L.Heel.Upper			L.Heel.Med			L.Heel.Lat			L.Toe.Lat			L.Toe.Med			L.Toe.Tip			Cervical.Spine			Back			
		X1	Y1	Z1	X2	Y2	Z2	X3	Y3	Z3	X4	Y4	Z4	X5	Y5	Z5	X6	Y6	Z6	X7	Y7	Z7	X8	Y8	Z8	X9	Y9	Z9	X10	Y10	Z10	X11	Y11	Z11	X12	Y12	Z12	X13	Y13	Z13	X14	Y14	Z14	X15	Y15	Z15	X16	Y16	Z16	X17	Y17	Z17	X18	Y18	Z18	X19	Y19	Z19	X20	Y20	Z20	X21	Y21	Z21	X22	Y22	Z22	X23	Y23	Z23	X24	Y24	Z24	X25	Y25	Z25	X26	Y26	Z26	X27	Y27	Z27	X28	Y28	Z28	X29	Y29	Z29	X30	Y30	Z30	X31	Y31	Z31	X32	Y32	Z32	X33	Y33	Z33	X34	Y34	Z34	X35	Y35	Z35	X36	Y36	Z36	X37	Y37	Z37	X38	Y38	Z38	X39	Y39	Z39	X40	Y40	Z40	X41	Y41	Z41	X42	Y42	Z42	X43	Y43	Z43	X44	Y44	Z44	X45	Y45	Z45	X46	Y46	Z46	X47	Y47	Z47	X48	Y48	Z48	X49	Y49	Z49	X50	Y50	Z50	X51	Y51	Z51	

54	0.22083	-1183.4	1276.4	212.15	-1313.5	1508	388.2	-1334.1	1482.9	38.477	-1313.6	1828.7	191.53	-1215.7	985.25	359.09	NaN	NaN	NaN	NaN	NaN	NaN	NaN	NaN	NaN	-1318.6	901.98	415.38	-1310.7	927.59	37.862	-1306.1	1084.4	399.04	-1310.3	1088.8	63.118	-1445.3	989.65	208.18	-1292.4	641.4	404.15	-1207.8	563.44	384.08	-1284	551.46	390.54	-1209.4	673.7	401.9	-1270	485.04	384.19	-1269.1	484.54	253.42	-1478.7	395.27	364.1	-1495.7	290.92	332.73	-1534.3	352.25	348.96	NaN	NaN	NaN	-1619.9	275.34	327.58	-1581.6	254.85	246.56	-1670.2	303.73	261.99	-1679.9	278.93	230.23	-1701.1	289.17	292.86	-1627.9	146.76	367.64	-1582	106.3	260.43	-1537.7	65.99	316.11	-1277	686.62	52.124	-1179.3	610.42	65.497	-1252.1	603.31	69.957	-1210.3	693.53	45.62	-1193.9	517.02	82.904	-1198.5	509.53	205.95	-1265.6	335.39	78.818	-1205.3	246.89	93.851	-1260.7	255.92	89.295	-1206.3	325.61	80.932	-1223	99.455	112.09	-1219	110.56	203.73	-1295.9	69.531	157.24	-1289.9	46.757	191.6	-1292.9	42.065	130.17	-1108	43.042	95.605	-1079.3	50.924	212.15	-1021.1	62.444	163.86	-1376.2	1548.3	218.24	-1451.7	1289.3	211.64
55	0.225	-1178.1	1277.2	212.2	-1308	1508.7	387.97	-1328.3	1483.8	38.228	-1308.2	1829.5	191.31	-1210.3	986.29	358.83	NaN	NaN	NaN	NaN	NaN	NaN	NaN	NaN	NaN	-1312.9	902.94	415.27	-1305.7	928.17	37.724	-1300.8	1085.3	398.79	-1304.9	1089.6	62.875	-1440.1	990.42	208.02	-1283.6	642.4	404.11	-1198.2	565.49	383.8	-1274.2	552.54	390.46	-1201.1	675.71	401.75	-1259.5	486.45	383.99	-1258.8	486.03	253.23	-1467.8	395.72	363.79	-1484.1	291.17	332.76	-1523.4	352.49	348.83	NaN	NaN	NaN	-1608.2	274.93	327.43	-1569.9	254.48	246.47	-1659	302.42	261.76	-1668.3	277.31	230.05	-1689.8	287.48	292.64	-1614.8	146.69	368.24	-1568.7	106.02	261.15	-1523.4	67.284	316.96	-1273.6	687.18	52.116	-1176.4	610.29	65.425	-1249.2	603.68	69.895	-1206.8	693.61	45.578	-1191.7	516.92	82.907	-1196.3	509.51	205.97	-1264.3	335.72	78.882	-1204.6	246.85	93.835	-1260	256.09	89.647	-1205.2	325.57	80.954	-1222.8	99.59	112.29	-1218.8	110.59	203.92	-1295.9	69.675	157.34	-1289.9	46.829	191.65	-1292.8	42.252	130.22	-1108	43.039	95.599	-1079.2	50.622	212.21	-1021	62.099	163.86	-1370.5	1549	217.9	-1446.5	1290.2	211.04
56	0.22917	-1172.9	1278	212.26	-1302.4	1509.4	387.74	-1322.5	1484.7	37.989	-1302.8	1830.2	191.13	-1205	987.33	358.57	NaN	NaN	NaN	NaN	NaN	NaN	NaN	NaN	NaN	-1307.2	903.92	415.18	-1300.8	928.75	37.6	-1295.4	1086.1	398.54	-1299.6	1090.4	62.641	-1434.9	991.19	207.89	-1274.8	643.44	404.08	-1188.7	567.59	383.51	-1264.4	553.69	390.39	-1192.8	677.75	401.58	-1249.1	487.91	383.79	-1248.6	487.58	253.03	-1456.8	396	363.52	-1472.4	291.24	332.82	-1512.5	352.5	348.74	NaN	NaN	NaN	-1596.3	274.21	327.35	-1558.1	253.87	246.4	-1647.7	300.76	261.6	-1656.7	275.31	229.98	-1678.4	285.44	292.5	-1601.4	146.28	368.84	-1555	105.54	261.84	-1508.8	68.407	317.78	-1270.3	687.76	52.119	-1173.6	610.15	65.344	-1246.5	604.06	69.83	-1203.4	693.68	45.533	-1189.6	516.84	82.902	-1194.2	509.5	205.99	-1263	336.06	78.927	-1203.8	246.87	93.78	-1259.3	256.3	89.985	-1204.2	325.54	80.967	-1222.6	99.724	112.48	-1218.6	110.64	204.09	-1295.8	69.826	157.43	-1289.9	46.903	191.68	-1292.8	42.44	130.26	-1107.9	43.035	95.594	-1079.1	50.338	212.26	-1020.9	61.771	163.85	-1364.8	1549.8	217.56	-1441.2	1291.1	210.43
57	0.23333	-1167.6	1278.8	212.31	-1296.9	1510.1	387.51	-1316.8	1485.6	37.76	-1297.3	1831	190.96	-1199.7	988.37	358.31	NaN	NaN	NaN	NaN	NaN	NaN	NaN	NaN	NaN	-1301.5	904.92	415.11	-1296	929.32	37.492	-1290.1	1087	398.31	-1294.2	1091.1	62.417	-1429.7	991.98	207.81	-1266	644.54	404.07	-1179.3	569.73	383.19	-1254.6	554.91	390.34	-1184.6	679.82	401.42	-1238.7	489.42	383.59	-1238.4	489.18	252.84	-1445.8	396.11	363.29	-1460.6	291.14	332.91	-1501.4	352.29	348.68	NaN	NaN	NaN	-1584.2	273.19	327.33	-1546.1	253.03	246.37	-1636.3	298.78	261.53	-1645	272.94	230.02	-1666.9	283.05	292.46	-1587.7	145.55	369.44	-1541.1	104.86	262.49	-1493.9	69.338	318.55	-1267	688.35	52.134	-1170.9	610.01	65.256	-1243.8	604.43	69.762	-1200	693.74	45.485	-1187.5	516.76	82.889	-1192.2	509.48	205.99	-1261.7	336.4	78.954	-1202.9	246.93	93.691	-1258.6	256.54	90.307	-1203.2	325.52	80.971	-1222.5	99.858	112.67	-1218.5	110.69	204.25	-1295.8	69.984	157.51	-1289.9	46.98	191.72	-1292.7	42.631	130.29	-1107.9	43.029	95.589	-1079	50.072	212.31	-1020.8	61.46	163.83	-1359.1	1550.6	217.24	-1435.9	1291.9	209.83
58	0.2375	-1162.4	1279.6	212.37	-1291.4	1510.8	387.3	-1311	1486.4	37.541	-1291.9	1831.8	190.83	-1194.4	989.41	358.06	NaN	NaN	NaN	NaN	NaN	NaN	NaN	NaN	NaN	-1295.8	905.91	415.05	-1291.2	929.89	37.4	-1284.7	1087.8	398.08	-1288.8	1091.9	62.203	-1424.5	992.76	207.76	-1257.3	645.69	404.09	-1169.9	571.91	382.85	-1245	556.18	390.31	-1176.4	681.92	401.25	-1228.4	490.97	383.38	-1228.4	490.82	252.65	-1434.8	396.06	363.11	-1448.6	290.88	333.03	-1490.3	351.86	348.66	NaN	NaN	NaN	-1572	271.88	327.38	-1534	251.97	246.37	-1624.8	296.47	261.55	-1633.3	270.22	230.17	-1655.3	280.32	292.52	-1573.6	144.51	370.04	-1526.8	103.99	263.1	-1478.8	70.061	319.28	-1263.8	688.95	52.165	-1168.2	609.87	65.161	-1241.1	604.82	69.695	-1196.7	693.8	45.434	-1185.5	516.7	82.868	-1190.3	509.47	205.98	-1260.5	336.74	78.963	-1202	247.03	93.573	-1257.9	256.82	90.613	-1202.2	325.52	80.967	-1222.3	99.992	112.85	-1218.3	110.75	204.4	-1295.8	70.15	157.59	-1289.8	47.06	191.75	-1292.6	42.822	130.33	-1107.8	43.022	95.586	-1078.9	49.823	212.36	-1020.7	61.162	163.82	-1353.3	1551.3	216.92	-1430.6	1292.8	209.23
